<svg xmlns="http://www.w3.org/2000/svg" viewBox="0 0 230.28 51.97"><defs><style>.cls-1{fill:#314a5d;}.cls-2{fill:#4ec393;}.cls-3{fill:none;}.cls-4{fill:#fff;}.cls-5{fill:#5c6e7f;}</style></defs><title>Recurso 5</title><g id="Capa_2" data-name="Capa 2"><g id="Capa_1-2" data-name="Capa 1"><path class="cls-1" d="M85.59,12.59a.35.35,0,0,1-.26.1H75.1a.13.13,0,0,0-.15.15v5.61a.13.13,0,0,0,.15.15H82a.36.36,0,0,1,.26.11.33.33,0,0,1,.1.25v2.28a.34.34,0,0,1-.36.36H75.1a.13.13,0,0,0-.15.15v5.79a.13.13,0,0,0,.15.15H85.33a.36.36,0,0,1,.26.11.33.33,0,0,1,.1.25v2.28a.34.34,0,0,1-.36.36H71.83a.33.33,0,0,1-.25-.1.36.36,0,0,1-.11-.26V10.05a.38.38,0,0,1,.36-.36h13.5a.36.36,0,0,1,.26.11.33.33,0,0,1,.1.25v2.28A.35.35,0,0,1,85.59,12.59Z"/><path class="cls-1" d="M98.07,15.47a.34.34,0,0,1,.25-.11h2.73a.36.36,0,0,1,.26.11.33.33,0,0,1,.1.25V30.33a.34.34,0,0,1-.36.36H98.32a.33.33,0,0,1-.25-.1.36.36,0,0,1-.11-.26v-1a.12.12,0,0,0-.06-.12s-.08,0-.12.06a4.38,4.38,0,0,1-3.69,1.59,5.67,5.67,0,0,1-3.82-1.32,4.67,4.67,0,0,1-1.55-3.75V15.72a.38.38,0,0,1,.36-.36h2.76a.36.36,0,0,1,.26.11.33.33,0,0,1,.1.25v9.12a3.3,3.3,0,0,0,.74,2.25,2.58,2.58,0,0,0,2,.84,2.86,2.86,0,0,0,2.16-.84A3.1,3.1,0,0,0,98,24.84V15.72A.34.34,0,0,1,98.07,15.47Z"/><path class="cls-1" d="M107.52,30.32a5.15,5.15,0,0,1-2.21-1.53,3.41,3.41,0,0,1-.78-2.18v-.27a.38.38,0,0,1,.36-.36h2.64a.36.36,0,0,1,.26.11.33.33,0,0,1,.1.25v.06a1.59,1.59,0,0,0,.83,1.31,3.64,3.64,0,0,0,2.08.55,3.48,3.48,0,0,0,2-.49,1.47,1.47,0,0,0,.75-1.25,1.1,1.1,0,0,0-.61-1,9.91,9.91,0,0,0-2-.74l-1.14-.36a16.87,16.87,0,0,1-2.58-1A5.14,5.14,0,0,1,105.4,22a3.49,3.49,0,0,1-.72-2.27,4,4,0,0,1,1.65-3.34,7,7,0,0,1,4.35-1.25,8.17,8.17,0,0,1,3.21.59A4.93,4.93,0,0,1,116,17.39a3.9,3.9,0,0,1,.75,2.35.34.34,0,0,1-.36.36h-2.55a.33.33,0,0,1-.25-.1.36.36,0,0,1-.11-.26,1.53,1.53,0,0,0-.76-1.3,4.36,4.36,0,0,0-4-.09,1.35,1.35,0,0,0-.74,1.21,1.2,1.2,0,0,0,.71,1.1,12.47,12.47,0,0,0,2.35.82l.66.18a21.19,21.19,0,0,1,2.67,1A5.21,5.21,0,0,1,116.23,24a3.41,3.41,0,0,1,.75,2.29,3.91,3.91,0,0,1-1.68,3.35,7.47,7.47,0,0,1-4.47,1.21A9.08,9.08,0,0,1,107.52,30.32Z"/><path class="cls-1" d="M120,30.59a.36.36,0,0,1-.11-.26V10.05a.38.38,0,0,1,.36-.36H123a.36.36,0,0,1,.26.11.33.33,0,0,1,.1.25V20.88a.12.12,0,0,0,.06.12s.08,0,.12-.06l4.86-5.37a.63.63,0,0,1,.45-.21h3.18q.3,0,.3.21a.51.51,0,0,1-.09.24l-3.81,4.56a.17.17,0,0,0,0,.21l4.5,9.69a.46.46,0,0,1,.06.18q0,.24-.33.24h-2.91a.42.42,0,0,1-.42-.27l-3.27-7.62a.13.13,0,0,0-.1-.07.09.09,0,0,0-.11,0l-2.4,2.76a.48.48,0,0,0-.06.21v4.59a.34.34,0,0,1-.36.36h-2.76A.33.33,0,0,1,120,30.59Z"/><path class="cls-1" d="M144.25,15.78a5.24,5.24,0,0,1,2.22,1.82,4.57,4.57,0,0,1,.78,2.62V30.33a.34.34,0,0,1-.36.36h-2.76a.33.33,0,0,1-.25-.1.36.36,0,0,1-.11-.26v-1c0-.06,0-.09-.06-.1a.12.12,0,0,0-.12,0,5.46,5.46,0,0,1-4.26,1.62,5.81,5.81,0,0,1-3.7-1.14,4,4,0,0,1-1.46-3.39,4.4,4.4,0,0,1,1.64-3.64,7.2,7.2,0,0,1,4.6-1.31h3.21a.13.13,0,0,0,.15-.15v-.72a2.35,2.35,0,0,0-.69-1.81,2.94,2.94,0,0,0-2.07-.65,3.66,3.66,0,0,0-1.84.41,1.76,1.76,0,0,0-.89,1.12q-.09.36-.42.3L135,19.59a.63.63,0,0,1-.25-.1.18.18,0,0,1-.08-.2,4.21,4.21,0,0,1,2-3,7.54,7.54,0,0,1,4.33-1.17A7.92,7.92,0,0,1,144.25,15.78Zm-1.53,11.61a2.37,2.37,0,0,0,1.05-2V24a.13.13,0,0,0-.15-.15H141.1a4.51,4.51,0,0,0-2.5.6,1.93,1.93,0,0,0-.92,1.71,1.76,1.76,0,0,0,.71,1.49,2.94,2.94,0,0,0,1.81.52A4.11,4.11,0,0,0,142.72,27.39Z"/><path class="cls-1" d="M150.84,30.59a.36.36,0,0,1-.11-.26V10.05a.38.38,0,0,1,.36-.36h2.76a.36.36,0,0,1,.26.11.33.33,0,0,1,.1.25V30.33a.34.34,0,0,1-.36.36h-2.76A.33.33,0,0,1,150.84,30.59Z"/><path class="cls-2" d="M177.93,16.52a5.45,5.45,0,0,1,1.3,3.88v9.93a.34.34,0,0,1-.36.36h-2.73a.33.33,0,0,1-.25-.1.36.36,0,0,1-.11-.26V21.12a3.13,3.13,0,0,0-.73-2.19,2.53,2.53,0,0,0-2-.81,2.67,2.67,0,0,0-2,.81,3,3,0,0,0-.78,2.16v9.24a.34.34,0,0,1-.36.36H167.2a.33.33,0,0,1-.25-.1.36.36,0,0,1-.11-.26V21.12a3.1,3.1,0,0,0-.75-2.19,2.57,2.57,0,0,0-2-.81,2.6,2.6,0,0,0-2.73,2.46v9.75a.34.34,0,0,1-.36.36h-2.76a.33.33,0,0,1-.25-.1.36.36,0,0,1-.11-.26V15.72a.38.38,0,0,1,.36-.36H161a.36.36,0,0,1,.26.11.33.33,0,0,1,.1.25v1a.12.12,0,0,0,.06.12s.08,0,.12-.06a4,4,0,0,1,1.64-1.24,5.59,5.59,0,0,1,2.17-.41,5.34,5.34,0,0,1,2.58.6,4.1,4.1,0,0,1,1.71,1.74q.09.12.21,0a4.11,4.11,0,0,1,1.83-1.77,5.88,5.88,0,0,1,2.61-.57A4.72,4.72,0,0,1,177.93,16.52Z"/><path class="cls-2" d="M195.7,23l0,.93a.32.32,0,0,1-.36.36h-9.39a.13.13,0,0,0-.15.15,4.29,4.29,0,0,0,.27,1.35q.72,2.16,3.51,2.19a3.78,3.78,0,0,0,3.24-1.68.35.35,0,0,1,.3-.18.29.29,0,0,1,.21.09l1.86,1.53a.32.32,0,0,1,.09.48,6.11,6.11,0,0,1-2.47,2,8.06,8.06,0,0,1-3.44.72,7.19,7.19,0,0,1-4-1.05A6.05,6.05,0,0,1,183,27a11.8,11.8,0,0,1-.69-4.5,9.12,9.12,0,0,1,.36-2.82,6,6,0,0,1,2.27-3.31,6.6,6.6,0,0,1,4-1.22q5.91,0,6.66,6.18A10.69,10.69,0,0,1,195.7,23Zm-8.62-4.3a2.93,2.93,0,0,0-1,1.54,5.21,5.21,0,0,0-.24,1.32q-.06.15.12.15H192a.13.13,0,0,0,.15-.15A5.66,5.66,0,0,0,192,20.4a2.9,2.9,0,0,0-1.06-1.68,3.23,3.23,0,0,0-2-.6A3,3,0,0,0,187.08,18.68Z"/><path class="cls-2" d="M206.61,18.08a.35.35,0,0,1-.26.1h-3.06a.13.13,0,0,0-.15.15v7.23a2.31,2.31,0,0,0,.5,1.65,2.1,2.1,0,0,0,1.57.51h.9a.36.36,0,0,1,.26.11.33.33,0,0,1,.1.25v2.25a.37.37,0,0,1-.36.39l-1.56,0a6.26,6.26,0,0,1-3.54-.81,3.54,3.54,0,0,1-1.2-3.06V18.33a.13.13,0,0,0-.15-.15H198a.33.33,0,0,1-.25-.1.36.36,0,0,1-.11-.26v-2.1a.38.38,0,0,1,.36-.36h1.71a.13.13,0,0,0,.15-.15V11.7a.38.38,0,0,1,.36-.36h2.61a.36.36,0,0,1,.26.11.33.33,0,0,1,.1.25v3.51a.13.13,0,0,0,.15.15h3.06a.36.36,0,0,1,.26.11.33.33,0,0,1,.1.25v2.1A.35.35,0,0,1,206.61,18.08Z"/><circle class="cls-3" cx="25.98" cy="25.98" r="25.98"/><path class="cls-2" d="M35.37,31a37.26,37.26,0,0,1-4.63,4.6A41.59,41.59,0,0,1,33.41,43a40.08,40.08,0,0,1,1.2,7.48,26,26,0,0,0,8.65-5.18A42.4,42.4,0,0,0,38,34.59Q36.79,32.73,35.37,31Z"/><path class="cls-1" d="M26.29,21.88a62.71,62.71,0,0,0-14.94-9.1,43.09,43.09,0,0,0-6.2-2.1c-.32.43-.62.87-.92,1.33a44.64,44.64,0,0,1,22.3,16.4,43.89,43.89,0,0,1,4.21,7.17A37.26,37.26,0,0,0,35.37,31,61.5,61.5,0,0,0,26.29,21.88Z"/><path class="cls-2" d="M28,44.19a36.56,36.56,0,0,0-1.48-5.59A36.21,36.21,0,0,1,7.53,44H7.19a25.72,25.72,0,0,0,21.35,7.89A35,35,0,0,0,28,44.19Z"/><path class="cls-1" d="M26.52,38.6a39.9,39.9,0,0,0-3.69-7.72A41.14,41.14,0,0,0,3,14.2,25.81,25.81,0,0,0,7.19,43.94h.34A36.21,36.21,0,0,0,26.52,38.6Z"/><path class="cls-2" d="M40.11,23.74a38.28,38.28,0,0,1-2.17,3.79A55.22,55.22,0,0,1,41.71,32a47.79,47.79,0,0,1,5.43,8.9,26,26,0,0,0,2.36-4.18,34.14,34.14,0,0,0-3.89-6.84A41.59,41.59,0,0,0,40.11,23.74Z"/><path class="cls-1" d="M15.66,10.19C13,9.32,10.24,8.58,7.48,8c-.35.35-.69.72-1,1.09a48.45,48.45,0,0,1,5.69,1.59,65.63,65.63,0,0,1,16.19,8.52,66.68,66.68,0,0,1,9.59,8.36,38.28,38.28,0,0,0,2.17-3.79,53.52,53.52,0,0,0-7.76-5.89A74.77,74.77,0,0,0,15.66,10.19Z"/><path class="cls-2" d="M43.9,7.55v0a36.39,36.39,0,0,1-2.07,12.1,47.51,47.51,0,0,1,7.57,7.18c.75.89,1.44,1.83,2.11,2.79A25.75,25.75,0,0,0,43.9,7.55Z"/><path class="cls-1" d="M9.19,6.38c2.39.41,4.78.91,7.14,1.51a77.89,77.89,0,0,1,17.84,6.85,59.41,59.41,0,0,1,7.66,4.94A36.39,36.39,0,0,0,43.9,7.58v0A25.84,25.84,0,0,0,9.19,6.38Z"/><path class="cls-4" d="M30.74,35.58a37.17,37.17,0,0,1-4.22,3A36.56,36.56,0,0,1,28,44.19a35,35,0,0,1,.54,7.64,25.51,25.51,0,0,0,6.07-1.37A40.08,40.08,0,0,0,33.41,43,41.59,41.59,0,0,0,30.74,35.58Z"/><path class="cls-4" d="M4.23,12A23.66,23.66,0,0,0,3,14.2,41.14,41.14,0,0,1,22.83,30.88a39.9,39.9,0,0,1,3.69,7.72,37.17,37.17,0,0,0,4.22-3,43.89,43.89,0,0,0-4.21-7.17A44.64,44.64,0,0,0,4.23,12Z"/><path class="cls-4" d="M37.94,27.53A37.65,37.65,0,0,1,35.37,31q1.41,1.75,2.66,3.61a42.4,42.4,0,0,1,5.23,10.69,25.58,25.58,0,0,0,3.88-4.43A47.79,47.79,0,0,0,41.71,32,55.22,55.22,0,0,0,37.94,27.53Z"/><path class="cls-4" d="M28.35,19.17a65.63,65.63,0,0,0-16.19-8.52A48.45,48.45,0,0,0,6.47,9.06q-.69.78-1.32,1.62a43.09,43.09,0,0,1,6.2,2.1,62.71,62.71,0,0,1,14.94,9.1A61.5,61.5,0,0,1,35.37,31a37.65,37.65,0,0,0,2.57-3.45A66.68,66.68,0,0,0,28.35,19.17Z"/><path class="cls-4" d="M41.83,19.68a35.56,35.56,0,0,1-1.72,4.06,41.59,41.59,0,0,1,5.5,6.09,34.14,34.14,0,0,1,3.89,6.84,25.11,25.11,0,0,0,2-7c-.67-1-1.36-1.9-2.11-2.79A47.51,47.51,0,0,0,41.83,19.68Z"/><path class="cls-4" d="M16.33,7.89c-2.36-.6-4.75-1.1-7.14-1.51C8.6,6.89,8,7.41,7.48,8c2.76.61,5.5,1.35,8.18,2.22a74.77,74.77,0,0,1,16.69,7.66,53.52,53.52,0,0,1,7.76,5.89,35.56,35.56,0,0,0,1.72-4.06,59.41,59.41,0,0,0-7.66-4.94A77.89,77.89,0,0,0,16.33,7.89Z"/><path class="cls-5" d="M75.22,46.11,74.89,45a.05.05,0,0,0,0,0H72.2s0,0,0,0l-.33,1.07a.12.12,0,0,1-.13.1h-1a.12.12,0,0,1-.09,0,.13.13,0,0,1,0-.11l2.17-6.76a.13.13,0,0,1,.13-.1h1.25a.12.12,0,0,1,.13.1l2.18,6.76a.07.07,0,0,1,0,0c0,.06,0,.09-.11.09h-1A.13.13,0,0,1,75.22,46.11Zm-2.72-2h2s.06,0,0-.06l-1-3.35s0,0,0,0,0,0,0,0l-1,3.35S72.47,44.09,72.5,44.09Z"/><path class="cls-5" d="M78.33,46a2.16,2.16,0,0,1-.88-.84,2.51,2.51,0,0,1-.31-1.24V41.5a2.48,2.48,0,0,1,.31-1.24,2.07,2.07,0,0,1,.88-.83,2.79,2.79,0,0,1,1.32-.3,2.87,2.87,0,0,1,1.31.29,2.15,2.15,0,0,1,.87.79,2.06,2.06,0,0,1,.31,1.13v.08a.16.16,0,0,1,0,.09.14.14,0,0,1-.09,0h-.91a.11.11,0,0,1-.08,0,.12.12,0,0,1,0-.09v-.05a1.18,1.18,0,0,0-.36-.89,1.38,1.38,0,0,0-1-.35,1.33,1.33,0,0,0-1,.37,1.3,1.3,0,0,0-.37,1V44a1.28,1.28,0,0,0,.39,1,1.44,1.44,0,0,0,1,.36,1.36,1.36,0,0,0,1-.31,1.12,1.12,0,0,0,.34-.87v-.62s0-.05,0-.05H79.71a.11.11,0,0,1-.08,0,.12.12,0,0,1,0-.09v-.74a.14.14,0,0,1,.12-.12H82a.11.11,0,0,1,.09,0,.11.11,0,0,1,0,.08v1.28a2.35,2.35,0,0,1-.67,1.79,2.53,2.53,0,0,1-1.82.64A2.92,2.92,0,0,1,78.33,46Z"/><path class="cls-5" d="M88.15,40.18a.14.14,0,0,1-.09,0H84.65a0,0,0,0,0-.05,0v1.87a0,0,0,0,0,.05,0h2.29a.11.11,0,0,1,.09,0,.11.11,0,0,1,0,.08v.76a.16.16,0,0,1,0,.09.14.14,0,0,1-.09,0H84.65a0,0,0,0,0-.05,0v1.93a0,0,0,0,0,.05.05h3.41a.11.11,0,0,1,.09,0,.11.11,0,0,1,0,.08v.76a.16.16,0,0,1,0,.09.14.14,0,0,1-.09,0h-4.5a.11.11,0,0,1-.08,0,.12.12,0,0,1,0-.09V39.33a.14.14,0,0,1,.12-.12h4.5a.11.11,0,0,1,.09,0,.11.11,0,0,1,0,.08v.76A.16.16,0,0,1,88.15,40.18Z"/><path class="cls-5" d="M93.47,39.25a.09.09,0,0,1,.08,0h.92a.11.11,0,0,1,.09,0,.11.11,0,0,1,0,.08v6.76a.16.16,0,0,1,0,.09.14.14,0,0,1-.09,0h-.89a.16.16,0,0,1-.14-.08l-2.88-4.72s0,0,0,0,0,0,0,0l0,4.66a.16.16,0,0,1,0,.09.14.14,0,0,1-.09,0h-.92a.11.11,0,0,1-.08,0,.12.12,0,0,1,0-.09V39.33a.14.14,0,0,1,.12-.12h.89a.14.14,0,0,1,.14.08L93.38,44l0,0s0,0,0,0V39.33A.09.09,0,0,1,93.47,39.25Z"/><path class="cls-5" d="M97.07,46a2.2,2.2,0,0,1-.88-.83,2.44,2.44,0,0,1-.31-1.23V41.47a2.44,2.44,0,0,1,.31-1.23,2.11,2.11,0,0,1,.88-.82,2.92,2.92,0,0,1,1.32-.29,2.87,2.87,0,0,1,1.31.28,2.05,2.05,0,0,1,.88.79,2.19,2.19,0,0,1,.31,1.18.16.16,0,0,1,0,.09.14.14,0,0,1-.09,0l-.92,0c-.08,0-.12,0-.12-.11a1.29,1.29,0,0,0-.36-.95,1.35,1.35,0,0,0-1-.36,1.36,1.36,0,0,0-1,.36,1.3,1.3,0,0,0-.37.95V44a1.27,1.27,0,0,0,.37.94,1.36,1.36,0,0,0,1,.36,1.38,1.38,0,0,0,1-.35,1.29,1.29,0,0,0,.36-.95c0-.07,0-.11.12-.11l.92,0a.14.14,0,0,1,.09,0,.09.09,0,0,1,0,.07,2.28,2.28,0,0,1-.31,1.2,2.05,2.05,0,0,1-.88.79,2.87,2.87,0,0,1-1.31.28A2.92,2.92,0,0,1,97.07,46Z"/><path class="cls-5" d="M102.17,46.18a.12.12,0,0,1,0-.09V39.33a.14.14,0,0,1,.12-.12h.92a.11.11,0,0,1,.09,0,.11.11,0,0,1,0,.08v6.76a.16.16,0,0,1,0,.09.14.14,0,0,1-.09,0h-.92A.11.11,0,0,1,102.17,46.18Z"/><path class="cls-5" d="M109,46.11,108.63,45a.05.05,0,0,0,0,0h-2.64s0,0,0,0l-.33,1.07a.12.12,0,0,1-.13.1h-1a.12.12,0,0,1-.09,0,.13.13,0,0,1,0-.11l2.17-6.76a.13.13,0,0,1,.13-.1h1.25a.12.12,0,0,1,.13.1l2.18,6.76a.07.07,0,0,1,0,0c0,.06,0,.09-.11.09h-1A.13.13,0,0,1,109,46.11Zm-2.72-2h2s.06,0,0-.06l-1-3.35s0,0,0,0,0,0,0,0l-1,3.35S106.21,44.09,106.24,44.09Z"/><path class="cls-5" d="M114.91,46.11l-2.1-6.76v0c0-.07,0-.1.11-.1h1a.12.12,0,0,1,.14.1l1.5,5.22,0,0a0,0,0,0,0,0,0l1.49-5.22a.13.13,0,0,1,.14-.1h1a.1.1,0,0,1,.09,0,.09.09,0,0,1,0,.1l-2.13,6.76a.12.12,0,0,1-.13.1h-1A.13.13,0,0,1,114.91,46.11Z"/><path class="cls-5" d="M122.56,46.11,122.23,45a.05.05,0,0,0,0,0h-2.64s0,0-.05,0l-.33,1.07a.12.12,0,0,1-.13.1h-1a.12.12,0,0,1-.09,0,.13.13,0,0,1,0-.11l2.17-6.76a.13.13,0,0,1,.13-.1h1.25a.12.12,0,0,1,.13.1l2.18,6.76a.07.07,0,0,1,0,0c0,.06,0,.09-.11.09h-1A.13.13,0,0,1,122.56,46.11Zm-2.72-2h2s.06,0,0-.06l-1-3.35s0,0,0,0,0,0,0,0l-1,3.35S119.81,44.09,119.84,44.09Z"/><path class="cls-5" d="M125.32,46a2.1,2.1,0,0,1-.89-.7,1.8,1.8,0,0,1-.32-1.06V44a.14.14,0,0,1,.12-.12h.89a.11.11,0,0,1,.09,0,.11.11,0,0,1,0,.08v.19a.94.94,0,0,0,.41.77,1.88,1.88,0,0,0,1.12.3,1.4,1.4,0,0,0,.92-.26.82.82,0,0,0,.31-.67.65.65,0,0,0-.17-.47,1.58,1.58,0,0,0-.48-.36,9.77,9.77,0,0,0-.95-.4,10.7,10.7,0,0,1-1.15-.49,2.09,2.09,0,0,1-.73-.62,1.62,1.62,0,0,1-.3-1,1.7,1.7,0,0,1,.64-1.39,2.68,2.68,0,0,1,1.71-.51,3.29,3.29,0,0,1,1.33.26,2.08,2.08,0,0,1,.89.73,1.78,1.78,0,0,1,.32,1.07v.17a.16.16,0,0,1,0,.09.14.14,0,0,1-.09,0h-.9a.11.11,0,0,1-.08,0,.12.12,0,0,1,0-.09v-.11a1,1,0,0,0-.38-.79,1.59,1.59,0,0,0-1.07-.33,1.41,1.41,0,0,0-.85.23.75.75,0,0,0-.31.65.78.78,0,0,0,.16.49,1.57,1.57,0,0,0,.48.35q.33.15,1,.39a10.68,10.68,0,0,1,1.14.49,2.26,2.26,0,0,1,.73.62,1.57,1.57,0,0,1,.3,1,1.73,1.73,0,0,1-.66,1.43,2.88,2.88,0,0,1-1.82.53A3.37,3.37,0,0,1,125.32,46Z"/><path class="cls-5" d="M131.35,46a2.2,2.2,0,0,1-.88-.83,2.44,2.44,0,0,1-.31-1.23V41.47a2.44,2.44,0,0,1,.31-1.23,2.11,2.11,0,0,1,.88-.82,2.92,2.92,0,0,1,1.32-.29,2.87,2.87,0,0,1,1.31.28,2.05,2.05,0,0,1,.88.79,2.19,2.19,0,0,1,.31,1.18.16.16,0,0,1,0,.09.14.14,0,0,1-.09,0l-.92,0c-.08,0-.12,0-.12-.11a1.29,1.29,0,0,0-.36-.95,1.35,1.35,0,0,0-1-.36,1.36,1.36,0,0,0-1,.36,1.3,1.3,0,0,0-.37.95V44a1.27,1.27,0,0,0,.37.94,1.36,1.36,0,0,0,1,.36,1.38,1.38,0,0,0,1-.35A1.29,1.29,0,0,0,134,44c0-.07,0-.11.12-.11l.92,0a.14.14,0,0,1,.09,0,.09.09,0,0,1,0,.07,2.28,2.28,0,0,1-.31,1.2A2.05,2.05,0,0,1,134,46a2.87,2.87,0,0,1-1.31.28A2.92,2.92,0,0,1,131.35,46Z"/><path class="cls-5" d="M140.52,46.11,140.19,45a.05.05,0,0,0-.05,0H137.5s0,0-.05,0l-.33,1.07a.12.12,0,0,1-.13.1h-1a.12.12,0,0,1-.09,0,.13.13,0,0,1,0-.11l2.17-6.76a.13.13,0,0,1,.13-.1h1.25a.12.12,0,0,1,.13.1l2.18,6.76a.07.07,0,0,1,0,0c0,.06,0,.09-.11.09h-1A.13.13,0,0,1,140.52,46.11Zm-2.72-2h2s.06,0,0-.06l-1-3.35s0,0,0,0,0,0,0,0l-1,3.35S137.77,44.09,137.8,44.09Z"/><path class="cls-5" d="M144.83,46.18a.12.12,0,0,1,0-.09V39.33a.14.14,0,0,1,.12-.12h2.44a2.88,2.88,0,0,1,1.25.25,2,2,0,0,1,.84.72,2,2,0,0,1,.29,1.08v2.9a2.06,2.06,0,0,1-.29,1.09,2,2,0,0,1-.84.71,2.88,2.88,0,0,1-1.25.25h-2.44A.11.11,0,0,1,144.83,46.18Zm1.17-1h1.4a1.11,1.11,0,0,0,.85-.33,1.29,1.29,0,0,0,.32-.9V41.45a1.21,1.21,0,0,0-.32-.9,1.11,1.11,0,0,0-.86-.34H146a0,0,0,0,0-.05,0v4.9A0,0,0,0,0,146,45.21Z"/><path class="cls-5" d="M155.68,40.18a.14.14,0,0,1-.09,0h-3.41a0,0,0,0,0-.05,0v1.87a0,0,0,0,0,.05,0h2.29a.11.11,0,0,1,.09,0,.11.11,0,0,1,0,.08v.76a.16.16,0,0,1,0,.09.14.14,0,0,1-.09,0h-2.29a0,0,0,0,0-.05,0v1.93a0,0,0,0,0,.05.05h3.41a.11.11,0,0,1,.09,0,.11.11,0,0,1,0,.08v.76a.16.16,0,0,1,0,.09.14.14,0,0,1-.09,0h-4.5a.11.11,0,0,1-.08,0,.12.12,0,0,1,0-.09V39.33a.14.14,0,0,1,.12-.12h4.5a.11.11,0,0,1,.09,0,.11.11,0,0,1,0,.08v.76A.16.16,0,0,1,155.68,40.18Z"/><path class="cls-5" d="M165.54,39.21h.92a.11.11,0,0,1,.09,0,.11.11,0,0,1,0,.08v6.76a.16.16,0,0,1,0,.09.14.14,0,0,1-.09,0h-.92a.11.11,0,0,1-.08,0,.12.12,0,0,1,0-.09V41.32a.05.05,0,0,0,0,0s0,0,0,0l-1.25,1.92a.16.16,0,0,1-.14.08h-.46a.17.17,0,0,1-.14-.08l-1.26-1.91s0,0,0,0,0,0,0,0v4.76a.16.16,0,0,1,0,.09.14.14,0,0,1-.09,0H161a.11.11,0,0,1-.08,0,.12.12,0,0,1,0-.09V39.33a.14.14,0,0,1,.12-.12h.92a.16.16,0,0,1,.14.08l1.63,2.47,0,0s0,0,0,0l1.63-2.47A.17.17,0,0,1,165.54,39.21Z"/><path class="cls-5" d="M172.75,40.18a.14.14,0,0,1-.09,0h-3.41a0,0,0,0,0-.05,0v1.87a0,0,0,0,0,.05,0h2.29a.11.11,0,0,1,.09,0,.11.11,0,0,1,0,.08v.76a.16.16,0,0,1,0,.09.14.14,0,0,1-.09,0h-2.29a0,0,0,0,0-.05,0v1.93a0,0,0,0,0,.05.05h3.41a.11.11,0,0,1,.09,0,.11.11,0,0,1,0,.08v.76a.16.16,0,0,1,0,.09.14.14,0,0,1-.09,0h-4.5a.11.11,0,0,1-.08,0,.12.12,0,0,1,0-.09V39.33a.14.14,0,0,1,.12-.12h4.5a.11.11,0,0,1,.09,0,.11.11,0,0,1,0,.08v.76A.16.16,0,0,1,172.75,40.18Z"/><path class="cls-5" d="M178.65,39.25a.11.11,0,0,1,0,.08v.77a.16.16,0,0,1,0,.09.14.14,0,0,1-.09,0h-1.84a0,0,0,0,0-.05.05v5.82a.16.16,0,0,1,0,.09.14.14,0,0,1-.09,0h-.92a.11.11,0,0,1-.08,0,.12.12,0,0,1,0-.09V40.27s0-.05,0-.05h-1.77a.11.11,0,0,1-.08,0,.12.12,0,0,1,0-.09v-.77a.14.14,0,0,1,.12-.12h4.87A.11.11,0,0,1,178.65,39.25Z"/><path class="cls-5" d="M184.46,40.18a.14.14,0,0,1-.09,0H181a0,0,0,0,0-.05,0v1.87a0,0,0,0,0,.05,0h2.29a.11.11,0,0,1,.09,0,.11.11,0,0,1,0,.08v.76a.16.16,0,0,1,0,.09.14.14,0,0,1-.09,0H181a0,0,0,0,0-.05,0v1.93a0,0,0,0,0,.05.05h3.41a.11.11,0,0,1,.09,0,.11.11,0,0,1,0,.08v.76a.16.16,0,0,1,0,.09.14.14,0,0,1-.09,0h-4.5a.11.11,0,0,1-.08,0,.12.12,0,0,1,0-.09V39.33a.14.14,0,0,1,.12-.12h4.5a.11.11,0,0,1,.09,0,.11.11,0,0,1,0,.08v.76A.16.16,0,0,1,184.46,40.18Z"/><path class="cls-5" d="M186.71,46a2.26,2.26,0,0,1-.89-.87,2.57,2.57,0,0,1-.32-1.29V41.57a2.52,2.52,0,0,1,.32-1.27,2.19,2.19,0,0,1,.9-.86,2.68,2.68,0,0,1,1.32-.31,2.76,2.76,0,0,1,1.34.31,2.17,2.17,0,0,1,.89.86,2.42,2.42,0,0,1,.32,1.27v2.28a2.47,2.47,0,0,1-.32,1.29,2.26,2.26,0,0,1-.89.87,3.12,3.12,0,0,1-2.67,0Zm2.34-1.09a1.38,1.38,0,0,0,.38-1V41.56a1.4,1.4,0,0,0-.38-1,1.49,1.49,0,0,0-2,0,1.45,1.45,0,0,0-.38,1v2.33a1.42,1.42,0,0,0,.38,1,1.49,1.49,0,0,0,2,0Z"/><path class="cls-5" d="M195.67,46.12l-1.32-2.88a.05.05,0,0,0-.06,0h-1.2a0,0,0,0,0-.05,0v2.84a.16.16,0,0,1,0,.09.14.14,0,0,1-.09,0H192a.11.11,0,0,1-.08,0,.12.12,0,0,1,0-.09V39.33a.14.14,0,0,1,.12-.12h2.75a2.21,2.21,0,0,1,1.08.26,1.75,1.75,0,0,1,.73.72,2.06,2.06,0,0,1,.26,1.06,2,2,0,0,1-.35,1.18,1.89,1.89,0,0,1-1,.67l0,0v0l1.41,2.91a.1.1,0,0,1,0,.06s0,.08-.11.08h-1A.15.15,0,0,1,195.67,46.12ZM193,40.26v2a0,0,0,0,0,.05,0h1.5a1.08,1.08,0,0,0,.78-.28,1.14,1.14,0,0,0,0-1.52,1.09,1.09,0,0,0-.78-.29h-1.5A0,0,0,0,0,193,40.26Z"/><path class="cls-5" d="M199.05,46a2.26,2.26,0,0,1-.89-.87,2.57,2.57,0,0,1-.32-1.29V41.57a2.52,2.52,0,0,1,.32-1.27,2.19,2.19,0,0,1,.9-.86,2.68,2.68,0,0,1,1.32-.31,2.76,2.76,0,0,1,1.34.31,2.17,2.17,0,0,1,.89.86,2.42,2.42,0,0,1,.32,1.27v2.28a2.47,2.47,0,0,1-.32,1.29,2.26,2.26,0,0,1-.89.87,3.12,3.12,0,0,1-2.67,0Zm2.34-1.09a1.38,1.38,0,0,0,.38-1V41.56a1.4,1.4,0,0,0-.38-1,1.49,1.49,0,0,0-2,0,1.45,1.45,0,0,0-.38,1v2.33a1.42,1.42,0,0,0,.38,1,1.49,1.49,0,0,0,2,0Z"/><path class="cls-5" d="M204.26,46.18a.12.12,0,0,1,0-.09V39.33a.14.14,0,0,1,.12-.12h.92a.11.11,0,0,1,.09,0,.11.11,0,0,1,0,.08v5.83a0,0,0,0,0,.05.05h3.35a.11.11,0,0,1,.09,0,.11.11,0,0,1,0,.08v.76a.16.16,0,0,1,0,.09.14.14,0,0,1-.09,0h-4.44A.11.11,0,0,1,204.26,46.18Z"/><path class="cls-5" d="M210.91,46a2.26,2.26,0,0,1-.89-.87,2.57,2.57,0,0,1-.32-1.29V41.57A2.52,2.52,0,0,1,210,40.3a2.19,2.19,0,0,1,.9-.86,2.68,2.68,0,0,1,1.32-.31,2.76,2.76,0,0,1,1.34.31,2.17,2.17,0,0,1,.89.86,2.42,2.42,0,0,1,.32,1.27v2.28a2.47,2.47,0,0,1-.32,1.29,2.26,2.26,0,0,1-.89.87,3.12,3.12,0,0,1-2.67,0Zm2.34-1.09a1.38,1.38,0,0,0,.38-1V41.56a1.4,1.4,0,0,0-.38-1,1.49,1.49,0,0,0-2,0,1.45,1.45,0,0,0-.38,1v2.33a1.42,1.42,0,0,0,.38,1,1.49,1.49,0,0,0,2,0Z"/><path class="cls-5" d="M217.1,46a2.16,2.16,0,0,1-.88-.84,2.51,2.51,0,0,1-.31-1.24V41.5a2.48,2.48,0,0,1,.31-1.24,2.07,2.07,0,0,1,.88-.83,2.79,2.79,0,0,1,1.32-.3,2.87,2.87,0,0,1,1.31.29,2.15,2.15,0,0,1,.87.79,2.06,2.06,0,0,1,.31,1.13v.08a.16.16,0,0,1,0,.09.14.14,0,0,1-.09,0h-.91a.11.11,0,0,1-.08,0,.12.12,0,0,1,0-.09v-.05a1.18,1.18,0,0,0-.36-.89,1.38,1.38,0,0,0-1-.35,1.33,1.33,0,0,0-1,.37,1.3,1.3,0,0,0-.37,1V44a1.28,1.28,0,0,0,.39,1,1.44,1.44,0,0,0,1,.36,1.36,1.36,0,0,0,.95-.31,1.12,1.12,0,0,0,.34-.87v-.62a0,0,0,0,0,0-.05h-1.23a.11.11,0,0,1-.08,0,.12.12,0,0,1,0-.09v-.74a.14.14,0,0,1,.12-.12h2.31a.11.11,0,0,1,.09,0,.11.11,0,0,1,0,.08v1.28a2.35,2.35,0,0,1-.67,1.79,2.53,2.53,0,0,1-1.82.64A2.92,2.92,0,0,1,217.1,46Z"/><path class="cls-5" d="M222.25,46.18a.12.12,0,0,1,0-.09V39.33a.14.14,0,0,1,.12-.12h.92a.11.11,0,0,1,.09,0,.11.11,0,0,1,0,.08v6.76a.16.16,0,0,1,0,.09.14.14,0,0,1-.09,0h-.92A.11.11,0,0,1,222.25,46.18Zm0-7.65a.12.12,0,0,1,0-.1l.55-1a.16.16,0,0,1,.15-.08h.79a.11.11,0,0,1,.1,0,.1.1,0,0,1,0,.1l-.69,1a.16.16,0,0,1-.14.08h-.66S222.24,38.56,222.23,38.53Z"/><path class="cls-5" d="M229,46.11,228.71,45a.05.05,0,0,0-.05,0H226s0,0-.05,0l-.33,1.07a.12.12,0,0,1-.13.1h-1a.12.12,0,0,1-.09,0,.13.13,0,0,1,0-.11l2.17-6.76a.13.13,0,0,1,.13-.1H228a.12.12,0,0,1,.13.1l2.18,6.76a.07.07,0,0,1,0,0c0,.06,0,.09-.11.09h-1A.13.13,0,0,1,229,46.11Zm-2.72-2h2s.06,0,0-.06l-1-3.35s0,0,0,0,0,0,0,0l-1,3.35S226.29,44.09,226.32,44.09Z"/></g></g></svg>